<?xml version="1.0" encoding="utf-8"?>
<!-- Generator: Adobe Illustrator 15.0.0, SVG Export Plug-In . SVG Version: 6.00 Build 0)  -->
<!DOCTYPE svg PUBLIC "-//W3C//DTD SVG 1.1//EN" "http://www.w3.org/Graphics/SVG/1.1/DTD/svg11.dtd">
<svg version="1.1" id="Layer_1" xmlns="http://www.w3.org/2000/svg" xmlns:xlink="http://www.w3.org/1999/xlink" x="0px" y="0px"
	 width="20px" height="20px" viewBox="0 0 20 20" enable-background="new 0 0 20 20" xml:space="preserve">
<path fill="#FFFFFF" d="M19.45,16.793l-4.401-4.4c0.768-1.242,1.229-2.688,1.229-4.251c0-4.496-3.644-8.14-8.137-8.14
	C3.644,0,0,3.644,0,8.139c0,4.495,3.644,8.138,8.139,8.138c1.565,0,3.013-0.463,4.251-1.229l4.401,4.401
	c0.731,0.732,1.922,0.732,2.656,0C20.184,18.716,20.184,17.527,19.45,16.793z M8.139,13.773c-3.111,0-5.634-2.523-5.634-5.634
	c0-3.111,2.523-5.634,5.634-5.634c3.112,0,5.634,2.523,5.634,5.634C13.773,11.25,11.25,13.773,8.139,13.773z"/>
</svg>
