<?xml version="1.0" encoding="utf-8"?>
<!-- Generator: Adobe Illustrator 15.1.0, SVG Export Plug-In . SVG Version: 6.00 Build 0)  -->
<!DOCTYPE svg PUBLIC "-//W3C//DTD SVG 1.1//EN" "http://www.w3.org/Graphics/SVG/1.1/DTD/svg11.dtd">
<svg version="1.1" id="Layer_1" xmlns="http://www.w3.org/2000/svg" xmlns:xlink="http://www.w3.org/1999/xlink" x="0px" y="0px"
	 width="100px" height="43px" viewBox="0 0 100 43" enable-background="new 0 0 100 43" xml:space="preserve">
<g>
	<path fill="#FFFFFF" d="M10,29.527V11h4.703l4.626,13.473L23.93,11h4.703v18.527h-3.501l0.127-13.445l-4.6,13.445h-2.684
		l-4.601-13.445l0.153,13.445H10z"/>
	<path fill="#FFFFFF" d="M32.721,15.534l3.348,9.772l3.681-9.772h3.348l-7.411,18.528h-3.298l1.917-4.928l-4.957-13.601H32.721z"/>
	<path fill="#FFFFFF" d="M43.79,11h2.709c0.41,0,0.819,0,1.202,0c1.202,0,2.224,0.052,3.117,0.417
		c1.994,0.833,3.092,2.45,3.092,4.534c0,1.72-0.639,2.97-1.866,3.596c1.792,0.547,2.89,2.189,2.89,4.326
		c0,1.771-0.688,3.361-1.789,4.326c-1.355,1.172-2.838,1.328-4.807,1.328h-4.55L43.79,11L43.79,11z"/>
	<path fill="#FFFFFF" d="M56.262,11h3.118v18.527h-3.118V11z"/>
	<path fill="#FFFFFF" d="M62.447,17.307c1.38-1.408,3.17-2.189,5.037-2.189c1.992,0,3.651,0.677,5.035,2.006
		c1.432,1.407,2.248,3.336,2.248,5.263c0,2.111-0.664,3.883-2.047,5.316c-1.379,1.459-3.141,2.189-5.187,2.189
		c-2.044,0-3.732-0.73-5.138-2.24c-1.305-1.435-2.019-3.207-2.019-5.187C60.378,20.511,61.094,18.687,62.447,17.307z"/>
	<path fill="#FFFFFF" d="M90,15.534v11.673C90,32.158,87.215,35,82.87,35c-3.323,0-5.572-1.615-6.62-4.717h3.092
		c0.665,1.252,1.969,2.008,3.477,2.008c2.478,0,4.295-1.771,4.295-4.611c0-0.053,0-0.076,0-0.131c-1.254,1.33-2.863,1.98-4.704,1.98
		c-1.815,0-3.502-0.654-4.78-1.877c-1.38-1.33-2.197-3.283-2.197-5.16c0-4.222,2.914-7.322,6.979-7.322
		c1.865,0,3.398,0.677,4.729,2.032v-1.668H90L90,15.534z"/>
</g>
</svg>
